<svg xmlns="http://www.w3.org/2000/svg" xmlns:xlink="http://www.w3.org/1999/xlink" width="1920" zoomAndPan="magnify" viewBox="0 0 1440 809.999993" height="1080" preserveAspectRatio="xMidYMid meet" version="1.0"><defs><clipPath id="id1"><path d="M 498 369 L 912 369 L 912 470 L 498 470 Z M 498 369 " clip-rule="nonzero"/></clipPath><clipPath id="id2"><path d="M 755.519531 185.238281 L 941.402344 427.367188 L 684.40625 624.667969 L 498.523438 382.542969 Z M 755.519531 185.238281 " clip-rule="nonzero"/></clipPath><clipPath id="id3"><path d="M 755.519531 185.238281 L 941.402344 427.367188 L 684.40625 624.667969 L 498.523438 382.542969 Z M 755.519531 185.238281 " clip-rule="nonzero"/></clipPath><clipPath id="id4"><path d="M 900 418 L 936 418 L 936 449 L 900 449 Z M 900 418 " clip-rule="nonzero"/></clipPath><clipPath id="id5"><path d="M 755.519531 185.238281 L 941.402344 427.367188 L 684.40625 624.667969 L 498.523438 382.542969 Z M 755.519531 185.238281 " clip-rule="nonzero"/></clipPath><clipPath id="id6"><path d="M 755.519531 185.238281 L 941.402344 427.367188 L 684.40625 624.667969 L 498.523438 382.542969 Z M 755.519531 185.238281 " clip-rule="nonzero"/></clipPath></defs><g clip-path="url(#id1)"><g clip-path="url(#id2)"><g clip-path="url(#id3)"><path fill="#ffffff" d="M 910.847656 431.710938 C 912.285156 430.03125 909.648438 428.054688 908.167969 429.625 C 899.445312 438.953125 884.195312 431 875.207031 426.15625 C 865.175781 420.824219 855.378906 415.046875 845.5625 409.417969 C 826.65625 398.515625 807.296875 387.796875 786.148438 381.886719 C 766.558594 376.410156 740.863281 372.660156 726.023438 389.859375 C 718.199219 398.933594 714.300781 410.617188 709.226562 421.304688 C 703.652344 433.105469 696.164062 444.25 685.988281 452.5625 C 670.445312 465.273438 644.921875 470.703125 627.910156 458.359375 C 644.410156 457.546875 660.878906 451.300781 672.378906 439.828125 C 678.371094 433.90625 683.648438 424.839844 680.390625 416.253906 C 676.554688 406.113281 662.730469 401.542969 653.003906 399.714844 C 632.207031 395.785156 610.949219 406.703125 610.328125 429.621094 C 610.246094 431.964844 610.390625 434.296875 610.757812 436.613281 C 611.125 438.929688 611.710938 441.191406 612.511719 443.394531 C 613.3125 445.601562 614.316406 447.707031 615.523438 449.722656 C 616.726562 451.734375 618.113281 453.613281 619.679688 455.359375 C 611.351562 454.871094 603.40625 452.875 595.835938 449.371094 C 592.675781 447.886719 589.640625 446.179688 586.730469 444.242188 C 583.824219 442.308594 581.074219 440.167969 578.484375 437.824219 C 575.894531 435.480469 573.496094 432.957031 571.28125 430.253906 C 569.070312 427.550781 567.070312 424.699219 565.28125 421.699219 C 558.402344 410.0625 556.359375 396.355469 549.824219 384.542969 C 545.097656 376.125 537.527344 369.691406 527.46875 369.75 C 516.769531 369.800781 507.125 376.417969 498.789062 382.445312 C 498.574219 382.609375 498.816406 382.925781 499.042969 382.777344 C 509.253906 375.863281 522.875 367.113281 535.605469 372.695312 C 548.992188 378.574219 552.132812 395.152344 556.363281 407.597656 C 564.175781 430.566406 581.398438 449.144531 605.179688 455.878906 C 610.921875 457.492188 616.773438 458.351562 622.734375 458.464844 C 624.519531 460.027344 626.421875 461.433594 628.4375 462.683594 C 630.453125 463.933594 632.558594 465.011719 634.753906 465.914062 C 636.949219 466.816406 639.203125 467.535156 641.515625 468.066406 C 643.828125 468.597656 646.167969 468.9375 648.539062 469.082031 C 673.988281 470.835938 695.148438 454.128906 707.804688 433.300781 C 714.921875 421.582031 718.65625 407.972656 726.398438 396.640625 C 736.054688 382.644531 750.542969 380.738281 766.398438 382.5 C 794.464844 385.652344 819.710938 399.664062 843.804688 413.476562 C 855.625 420.292969 867.371094 427.632812 879.746094 433.441406 C 889.574219 438.09375 902.800781 441.183594 910.847656 431.710938 Z M 621.945312 452.921875 C 620.242188 450.90625 618.792969 448.726562 617.59375 446.382812 C 616.390625 444.035156 615.472656 441.582031 614.835938 439.023438 C 614.195312 436.46875 613.855469 433.871094 613.8125 431.234375 C 613.773438 428.597656 614.027344 425.992188 614.585938 423.414062 C 617.191406 411.816406 626.792969 404.179688 638.371094 402.613281 C 649.65625 401.085938 663.644531 404.277344 672.652344 411.464844 C 684.6875 421.066406 673.988281 435.335938 664.839844 442.136719 C 661.925781 444.269531 658.867188 446.164062 655.65625 447.816406 C 652.445312 449.46875 649.128906 450.863281 645.699219 451.996094 C 642.273438 453.125 638.777344 453.984375 635.214844 454.566406 C 631.652344 455.148438 628.066406 455.449219 624.457031 455.472656 C 623.570312 454.667969 622.734375 453.816406 621.945312 452.921875 Z M 621.945312 452.921875 " fill-opacity="1" fill-rule="nonzero"/></g></g></g><g clip-path="url(#id4)"><g clip-path="url(#id5)"><g clip-path="url(#id6)"><path fill="#ffffff" d="M 914.667969 447.648438 C 916.164062 446.011719 916.273438 444.441406 916.992188 442.324219 C 917.96875 439.476562 919.328125 436.824219 921.070312 434.371094 C 922.730469 432.023438 924.667969 429.925781 926.878906 428.085938 C 929.085938 426.242188 931.496094 424.71875 934.109375 423.507812 C 935.863281 422.6875 935.402344 419.511719 933.238281 419.972656 C 928.066406 421.085938 922.832031 421.554688 917.542969 421.386719 C 912.253906 421.214844 907.0625 420.40625 901.96875 418.964844 C 900.480469 418.550781 899.753906 421.085938 901.238281 421.578125 C 908.957031 424.160156 916.878906 425.195312 925.003906 424.691406 C 922.292969 426.753906 919.929688 429.160156 917.917969 431.910156 C 915.082031 435.785156 910.683594 442.410156 912.441406 447.304688 C 912.480469 447.410156 912.535156 447.511719 912.605469 447.601562 C 912.671875 447.695312 912.75 447.773438 912.839844 447.847656 C 912.929688 447.917969 913.027344 447.976562 913.128906 448.019531 C 913.234375 448.066406 913.34375 448.097656 913.453125 448.117188 C 913.566406 448.132812 913.679688 448.136719 913.792969 448.125 C 913.90625 448.113281 914.015625 448.085938 914.125 448.042969 C 914.230469 448.003906 914.328125 447.949219 914.421875 447.882812 C 914.511719 447.816406 914.59375 447.738281 914.667969 447.648438 Z M 914.667969 447.648438 " fill-opacity="1" fill-rule="nonzero"/></g></g></g></svg>